<svg width="66" height="90" viewBox="0 0 66 90" fill="none" xmlns="http://www.w3.org/2000/svg">
<path d="M2.46713 58.6164L11.3424 1.74143C11.6492 -0.198233 14.251 -0.656495 15.1694 1.07742L24.7087 18.9309L2.46713 58.6164ZM65.84 71.8255L57.0975 20.0532C57.0341 19.6831 56.8707 19.3375 56.6249 19.0536C56.3791 18.7698 56.0603 18.5587 55.7031 18.4431C55.3459 18.3275 54.9638 18.3118 54.5983 18.3978C54.2329 18.4838 53.8979 18.6682 53.6297 18.9309L0 71.8255L29.8076 89.0169C30.7223 89.5185 31.7487 89.7815 32.7919 89.7815C33.8351 89.7815 34.8615 89.5185 35.7762 89.0169L65.84 71.8255ZM41.5914 26.7344L34.7568 13.7273C34.5869 13.3932 34.3278 13.1126 34.0082 12.9166C33.6886 12.7206 33.3211 12.6168 32.9462 12.6168C32.5713 12.6168 32.2038 12.7206 31.8842 12.9166C31.5646 13.1126 31.3055 13.3932 31.1356 13.7273L1.09048 67.2878L41.5914 26.7344Z" fill="black"/>
</svg>
