<svg width="34" height="34" viewBox="0 0 34 34" fill="none" xmlns="http://www.w3.org/2000/svg">
<path d="M33.4789 30.5872L25.7713 22.8796C27.6269 20.4092 28.6287 17.4023 28.6253 14.3126C28.6253 6.4207 22.2046 0 14.3126 0C6.4207 0 0 6.4207 0 14.3126C0 22.2046 6.4207 28.6253 14.3126 28.6253C17.4023 28.6287 20.4092 27.6269 22.8796 25.7713L30.5872 33.4789C30.9774 33.8277 31.4862 34.0138 32.0093 33.9992C32.5325 33.9846 33.0301 33.7702 33.4002 33.4002C33.7702 33.0301 33.9846 32.5325 33.9992 32.0093C34.0138 31.4862 33.8277 30.9774 33.4789 30.5872ZM4.08933 14.3126C4.08933 12.2907 4.68891 10.3141 5.81226 8.63287C6.93562 6.95166 8.53228 5.64131 10.4003 4.86753C12.2684 4.09375 14.324 3.89129 16.3071 4.28576C18.2902 4.68023 20.1119 5.65391 21.5416 7.08366C22.9714 8.51342 23.945 10.335 24.3395 12.3182C24.734 14.3013 24.5315 16.3569 23.7577 18.2249C22.984 20.093 21.6736 21.6897 19.9924 22.813C18.3112 23.9364 16.3346 24.536 14.3126 24.536C11.6022 24.5327 9.0038 23.4546 7.08726 21.538C5.17072 19.6215 4.09258 17.023 4.08933 14.3126Z" fill="black"/>
</svg>
